<?xml version="1.0" encoding="utf-8"?>
<!-- Generator: Adobe Illustrator 19.1.0, SVG Export Plug-In . SVG Version: 6.00 Build 0)  -->
<svg version="1.1" id="Layer_1" xmlns="http://www.w3.org/2000/svg" xmlns:xlink="http://www.w3.org/1999/xlink" x="0px" y="0px"
	 viewBox="0 0 1423.9 841.7" style="enable-background:new 0 0 1423.9 841.7;" xml:space="preserve">
<style type="text/css">
	.st0{fill:#FFFFFF;}
</style>
<g id="IKBUyu_1_">
	<g>
		<path class="st0" d="M73.1,660.6c0-3.9-0.2-7.5,0.1-11c0.1-1.1,1.6-2.3,2.8-3.1c1.6-1.1,3.8-1.4,5.2-2.7c2.4-2.1,6.9-2.5,4.5-8.3
			c-1.1-2.6,2.1-6.9,3.4-10.7c0,0.1,0.1-0.3-0.1-0.5c-5.6-5.5-5.4-5.1,0.6-10c3.2-2.6,5.4-6.5,7.8-9.9c0.3-0.4-0.1-1.7-0.6-2.2
			c-2-2.3-1.2-3.5,0.9-5.5c1.9-1.7,2.8-4.7,3.7-7.2c2.9-8.1,5.6-16.3,8.5-24.3c0.5-1.5,1.6-3.4,2.9-3.8c5.4-1.9,4.9-6.4,5.8-10.6
			c1.1-5.3,3.2-10.3,4.9-15.6c-11.4,3.8-23.7,7.6-35.8,11.9c-8.3,2.9-16.2,6.6-24.5,9.5c-12.5,4.5-25.3,7.4-38.7,6.3
			c-1-0.1-2.1-0.1-2.8-0.6c-5-3.8-10.4-7.3-14.9-11.7c-4.3-4.3-7.4-10-6.8-16.2c0.2-2.3,4.1-4.7,6.9-6.1c10.4-5,20.8-10,31.6-14.2
			c9.2-3.6,18.7-6.2,28.1-9.1c10.2-3.1,20.5-6.2,30.8-9.1c11.5-3.3,23-2.4,34.5,0.1c7.5,1.7,13.6,0.6,18.2-6c0.8-1.1,2.5-1.5,3.9-2
			c1.6-0.6,3.2-1,5.4-1.7c-4-4.1-6.1-7.2-3.1-12c3.9-6.2,5.8-14.5,11-19.1c5.8-5.1,7.2-11.2,9.7-17.5c3-7.6,6.9-14.6,12.3-21.1
			c3.8-4.6,5.5-11.1,8.3-16.6c1.7-3.5,3.7-6.9,5.6-10.3c2.1-3.7,4.2-7.3,6.3-10.9c0.9-1.6,1.6-3.3,2.5-4.8
			c8.9-15.2,17.6-30.5,26.7-45.6c3-5,7.1-9.5,10.5-14.3c3.1-4.5,5.8-9.2,9-13.7c3.5-5.1,7.2-10,11-14.9c4-5.1,7.8-6.6,16.8-3
			c5,2,8.7,5,11.8,9c4,5,3.3,11.9-1.3,17.3c-6.2,7.2-12.8,14.2-18.6,21.7c-5,6.4-9.4,13.3-13.8,20.2c-5.6,8.6-11,17.4-16.3,26.2
			c-4.6,7.5-8.9,15.2-13.3,22.8c-4.2,7.1-8.5,14.1-12.7,21.2c-3.8,6.7-7.3,13.5-11.2,20.1c-5.4,9.2-11.2,18.1-16.5,27.3
			c-2.7,4.6-4.8,9.6-8,16c9.7-2.4,18.1-5.2,26.7-6.4c14.7-2,29-7,44.4-3.7c5.8,1.2,10.2,4.6,15.2,5.9c7.5,2,8.3,6.5,8.9,12.4
			c0.2,1.7,1.7,3.2,3.1,5.7c3.3-1.1,7.5-2,11.2-3.7c15.8-7.1,32.4-11,49.5-12.7c5.9-0.6,11.7-1.6,17.6-1.8c2.8-0.1,5.8,0.9,8.5,1.9
			c6.3,2.1,10-1.1,9.7-7.9c-0.2-4.2,0.9-8.4,1.2-12.7c0.2-2.7,0.1-5.4,0-8.2c-0.2-7.6-0.1-15.2-0.7-22.8c-0.4-5.1-2.1-10.1-2.4-15.1
			c-0.5-9.2-0.4-18.4-0.7-27.6c-0.1-3-0.8-6-0.7-9c0.2-4.7,0.9-9.4,1.1-14.1c0.2-2.9-0.3-5.8,0-8.7c0.5-5.1,0.9-10.4,2.1-15.4
			c0.8-3.2-0.7-7.7,4.2-9.2c0.4-0.1,0.6-1.1,0.7-1.7c1.2-5.2,3.3-10.4,3.3-15.7c0-4.7,0.3-9.4,2.3-13.2c2.2-4.4,1.9-9,3.2-13.4
			c2.2-7.5,4.9-14.9,7.2-22.5c0.9-2.5,1.7-5,2.6-7.4c1.1-3,2.1-6.1,3.2-9.1c0.8-2.2,1.7-4.4,2.7-6.5c3.8-8.5,7.5-17.1,11.6-25.4
			c2.6-5.2,6.6-9.8,8.9-15.1c2.7-6.3,8.5-9.7,12.1-15c2.5-3.6,4.4-7.6,6.9-11.2c3.2-4.5,4-10.6,9.6-13.7c2.1-1.1,2.7-4.6,4.4-6.6
			c1.7-1.9,4.2-3.2,6-5c1.4-1.5,2.8-3.2,3.5-5.1c1.3-3.5,3-6,6.5-7.8c1.9-1,3.1-3.3,4.6-5.2c2.9-3.6,5.8-7.2,8.5-11
			c1.1-1.5,1.7-3.3,2.4-5c2-5.1,6.9-7.2,10.9-10.2c2-1.6,3.8-3.6,5.9-5c2.5-1.7,5.6-2.5,8-4.4c7.2-5.6,14.3-11.4,20.1-16.1
			c1.5-3.1,2-5.3,3.4-6.6c3.1-3.1,6.3-6.3,11.4-6.1c0.9,0,4.4-0.2,1.6-3c-0.1-0.1,0.9-1.2,1.5-1.8C571,51.3,585,41.9,601,35.7
			c6.9-2.7,13.5-6.3,20.1-9.9c1.6-0.9,2.6-3.2,3.7-4.9c0.9-1.3,1.6-2.8,2.7-4.6c6.4,7.8,11.3,1.7,16.2,0.8
			c8.8-1.6,17.5-4.2,26.2-6.2c8.7-2.1,17.4-4.7,26.2-5.9c7.8-1.1,15.3-4.6,23.7-2.6c3.3,0.8,7.4-1.8,11-2.2c3.9,0,7.8,0.3,11.6-0.1
			c5.2-0.5,17,2.6,21.6,5.9c1,0.7,2.3,1.2,3.6,1.5c3.2,0.8,7.7-1.1,8.4,4.5c0.1,0.6,2.6,0.9,2.7,0.9c6.8,7.8,12,15.2,13.2,25.7
			c2.2,1.3,3.7,3.9,1.4,7.7c-0.3,0.5-0.7,1.2-0.6,1.8c1.5,12-3.7,22.2-9.4,31.8c-5.2,8.8-11.1,17.2-17.7,24.9
			c-9.6,11.2-19.9,21.8-30.1,32.5c-14.1,14.7-28.5,29.1-42.8,43.7c-10.4,10.5-20.9,20.9-31.1,31.6c-8.8,9.3-17.2,19-25.8,28.5
			c-10.4,11.5-21.1,22.7-31.3,34.4c-12.6,14.5-24.9,29.1-36.9,44c-8.1,10-15.6,20.6-23.1,31.1c-2.6,3.6-4.4,7.7-6.7,11.6
			c-3.5,6-7,11.9-10.4,18c-1.3,2.3-2.1,5-3.4,7.3c-6.8,12.2-11.8,25-15,38.7c-2,8.8-6,17.3-6.6,26.1c-0.6,8.5-3.4,17.3,0.6,26.2
			c2.5,5.6,2.6,12.4,3.9,19.6c2.3-0.6,4.2-0.7,5.7-1.5c6.4-3.3,12.6-7.2,19.2-10.1c10-4.3,20.1-8.2,30.4-11.7
			c6-2.1,12.4-4.4,18.5-4.2c4.3,0.1,10.1,0,13.5,4.7c0.7,1,2,1.7,3.2,2.3c4.4,1.9,6.3,4.7,7.7,9.5c0.7,2.4,2.7,2.9,5.5,1.8
			c8.1-3.4,16.1-7.2,24.5-9.6c11-3.1,22.3-4.8,33.4-7.3c6.7-1.5,12.8,0.8,19.3,1.4c9.2,0.9,16.4,5.9,24.6,8.9
			c4,1.5,8.9,0.9,13.3,0.3c10.8-1.4,21.7-2.7,32.3-5.3c12-2.9,23.8-7,35.6-11c13.4-4.6,26.7-9.7,39.9-14.6c4.1-1.5,8-4.1,12.2-4.7
			c3.5-0.5,7.2,1.5,10.9,2c4.5,0.6,7.3,3,9.4,6.8c1.8,3.2,5.1,5.2,4.3,10.2c-0.6,3.6,2.7,7.7-0.3,11.6c-2.5,3.2-4.8,6.5-7.2,9.7
			c1.7,6.5,7.3,4.2,10.6,3.9c10.2-0.8,20.3-2.8,30.4-4.4c8.4-1.3,16.9-2.4,25.3-4.1c9.7-1.9,19.2-4.5,28.9-6.7
			c8.5-1.9,17.1-3.4,25.6-5.5c5.2-1.3,10.1-3.8,15.3-5.4c6.5-2,13.3-3.3,19.8-5.3c3.1-0.9,5.8-3.2,8.8-4.2
			c8.1-2.6,16.4-4.7,24.6-7.1c4.8-1.4,9.5-2.7,14.3-4.1c0.6-0.2,1.4-0.5,1.9-0.3c4.6,2.3,9.2,4.6,13.7,7.1c2.4,1.4,4.9,2.9,6.8,4.8
			c1.4,1.4,1.9,3.7,2.4,4.7c1.3,1.4,2,2.5,3,2.9c1.1,0.5,2.5,0.6,3.6,0.4c11.1-2,22.3-3.9,33.4-6.1c17.6-3.5,35.1-7.6,52.8-10.8
			c10-1.8,20.3-2.1,30.5-3.1c2.1-0.2,4.3-0.3,6.3-0.9c8.6-2.7,17.2-2.2,25.4,0.7c6.4,2.3,12.2,6.2,18.3,9.5c0.7,0.4,1.3,1.4,1.6,2.2
			c1.2,2.9,2.2,5.9,3.7,10.1c-0.2,1.8-0.5,5.2-1,10.1c3.4,0.2,6.6,0.6,9.8,0.4c7.2-0.5,14.3-1,21.4-2.1c6-0.9,11.8-2.6,17.8-4
			c5.3-1.2,10.5-2.6,15.8-3.6c12.8-2.3,25.8-4,38.6-6.6c6-1.2,11.6-4.2,17.6-5.6c3.5-0.8,7.3-3.1,10.9,1.5c1.8,2.3,6,2.6,9.1,3.9
			c5.3,2.3,8,7.4,12,11.1c4.1,3.9,2.7,11.2-2.9,16.9c-7.8,7.8-16.1,15.2-23.6,23.3c-8.3,8.9-15.9,18.3-23.8,27.4
			c-2.9,3.3-6.3,6.3-8.8,9.8c-4.1,5.8-7.8,11.9-11.6,17.9c-3.8,5.9-7,12.3-11.3,17.8c-8.1,10.6-16.7,20.7-25.1,31
			c-4.2,5.1-9.8,5-15.6,3.9c-3.6-0.7-7.4-0.9-10.9-1.9c-1.9-0.5-4.2-1.7-5.1-3.3c-3.1-5.2-5.5-10.7-8.5-16c-2.8-5.1-6.1-9.9-9-14.9
			c-1-1.7-1.4-3.6-2.1-5.7c3-0.9,4.6-0.5,7.1,1.9c3.1,2.9,8.4,3.3,12.2,5.6c5.2,3.3,8.7,1.7,12-2.5c3.2-4,6.6-7.6,9.6-11.7
			c5.7-7.8,11.3-15.7,16.6-23.8c5.6-8.4,10.6-17.2,16.3-25.5c3.8-5.6,8.3-10.6,12.4-16c1-1.3,1.8-2.7,3.6-5.3
			c-12.6,2-23.9,3.6-35.2,5.5c-6.7,1.1-13.3,2.7-19.9,3.9c-13,2.4-26.2,4.4-39.4,2.1c-2.7-0.5-5.4-0.3-8.2-0.8
			c-5.5-1.1-10-3.7-14.1-6.8c-3.5-2.7-7.1-5.2-9.1-10.2c-2.5-6-3.8-11.9-4.5-18.2c-0.1-0.8-2.1-2.2-3.1-2.1
			c-5.2,0.4-10.4,1.2-15.6,2c-3.4,0.5-6.9,1.7-10.3,1.7c-14-0.1-26.6,6-39.9,8.6c-16.1,3.2-32.2,7.1-47.9,11.9
			c-10,3.1-20.1,4.7-30.3,5.2c-5.2,0.2-10.7-1-14-6.8c-2.2-3.8-5.9-6.6-9.2-9.7c-0.8-0.8-2.6-1.2-3.6-0.9c-10.5,3.2-21,6.6-31.5,9.8
			c-6.3,1.9-12.6,3.7-18.9,5.6c-8.8,2.6-17.6,5.4-26.4,7.8c-4.4,1.2-8.9,1.8-13.3,2.6c-9.8,1.8-19.6,3.4-29.3,5.4
			c-11.5,2.3-23,5.1-34.6,7.2c-5.7,1-11.6,1.2-17.4,1.5c-13.4,0.7-24.9-3.2-33.5-14.2c-0.3-0.4-0.6-1-1-1.1c-8.3-1.6-8.1-10-12-15.1
			c-2-2.5-3.3-4-6.7-2.8c-8.6,3-17.4,5.6-26.2,8.3c-10.3,3.2-20.5,6.5-30.8,9.4c-5.5,1.5-11.1,2.6-16.8,3.5
			c-7.6,1.2-15.2,2.9-22.9,3c-6,0.1-12.3-1-18-2.8c-4.9-1.6-9-5.9-13.9-7.2c-6.6-1.7-13.1-4.5-20.5-2.2c-4.8,1.6-10.2,1.4-15.2,2.3
			c-6.9,1.2-13.7,2.4-19.6,6.8c-3.1,2.2-7.1,3.1-10.6,4.8c-8.8,4.1-17.5,8.4-26.2,12.5c-6.5,3.1-13.3,2.3-19.7,0.5
			c-2.8-0.8-4.5-4.7-7.1-6.6c-4.2-2.9-6.2-6.4-6.4-11.7c-0.1-2.4-2.2-4.7-3.3-7c-16.2,4.3-30.4,12.2-44.4,20.5
			c-2.8,1.7-7.2,2.8-2.2,7.7c2.4,2.3,2.5,7,3.9,10.6c1.2,3,2.6,6,3.8,9c2.2,5.1,4.8,10,6.4,15.3c2,6.7,5.7,12.7,6.3,20
			c0.3,3.5,1.4,7.2,1.2,10.9c-0.2,4.2-0.1,8.4-0.3,12.6c-0.8,22.3-13.2,36.7-31.9,46.5c-10.3,5.4-21.2,9.3-32.7,12.1
			c-11,2.7-21.7,4.6-33,4.5c-9.7,0-19.5,1.2-29.1,0.5c-7.2-0.5-14.7-2.1-21.3-5c-5-2.2-9.2-6.9-12.8-11.3c-3.4-4.2-5.8-9.4-8.2-14.4
			c-0.8-1.6-0.3-4,0.2-5.9c1.2-4.4,3.1-8.5,4-12.9c1.2-5.2,3.7-9.5,6.5-13.8c4.1-6.1,6.8-13.1,11.2-18.9c5.4-7.1,11.6-13.8,18.1-20
			c12.5-12,25.3-23.8,38.4-35.1c7-6,14.9-10.8,22.4-16.3c4.1-3,7.9-6.4,11.9-9.6c0-2.5,0-5.2,0-7.9c0-0.6-0.2-1.4-0.6-1.7
			c-4.2-2.7-3.2-7.6-4.8-11.3c-1.8-4.4-1.7-9.1-3.1-13.4c-3.5-9.9-1.8-20-2.4-30c-0.5-8.6,1.4-16.6,3.2-24.7
			c2.1-9.7,5.6-19.1,7.8-28.7c2.5-10.7,9.9-18.9,13.4-29c4.2-12.3,12.4-22,18.5-33.1c4.3-7.9,10.7-14.7,16.2-21.9
			c7.7-10,15.3-20.1,23.3-29.9c7.7-9.5,15.9-18.7,23.8-28c0.4-0.5,0.9-1,1.4-1.4c9.2-7,15.2-16.9,22.7-25.5c0.8-0.9,1.6-1.7,2.4-2.6
			c10.2-10.9,20.2-21.9,30.5-32.6c10.5-11.1,21.1-22.1,31.9-32.8c9.6-9.5,19.5-18.7,29.2-28.1c1.7-1.7,2.7-4,4.3-5.8
			c4.2-4.5,8.8-8.7,12.8-13.3c10.9-12.3,21.5-25,32.6-37.2c7.3-8,10.4-18.3,15.6-27.4c2.9-5.1,3.2-10,0-14.9
			c-0.8-1.2-2.4-2.4-3.7-2.7c-13.4-2.3-26.9-2.6-40.4-1.3c-12.6,1.3-25.1,4-37.6,6.3c-6.8,1.3-13.8,2.4-20.3,4.7
			c-19.9,7.1-40,13.9-58.3,24.8c-12.6,7.4-25.2,15-37.7,22.6c-8.4,5.1-17,10.1-25,15.9c-4.3,3.2-7.4,7.9-11.1,12
			c-3,3.4-5.9,6.9-9,10.1c-5.2,5.4-10.5,10.7-16,15.8c-2.4,2.2-5.7,3.4-7.8,5.7c-6.2,6.7-12.2,13.7-18,20.7
			c-5.6,6.8-11.3,13.6-16.2,20.8c-4.5,6.7-8.1,14-12.1,21c-1.5,2.6-3.3,5-4.4,7.7c-1.3,3.1-2.1,6.5-3.1,9.7
			c-0.4,1.1-1.2,2.1-1.6,3.2c-0.6,1.7-1.2,3.4-1.6,5.1c-0.2,0.7,0.1,1.7-0.2,2.2c-2.8,4.6-6.3,9-8.3,13.9c-3.3,8-5.6,16.4-8.4,24.6
			c-0.7,1.9-1.6,3.8-2.1,5.8c-1.5,6-2.7,12-4.2,17.9c-1.4,5.3-3.3,10.5-4.5,15.8c-1.9,8.3-3.8,16.7-5.2,25.1
			c-1.3,7.6-2.1,15.2-2.9,22.8c-0.5,5.2-0.7,10.4-1,15.6c-0.4,9-2.5,18.3-0.5,26.7c1.8,7.9-1.3,15.5,1,23c0.1,0.4-0.5,1.1-0.3,1.4
			c2.8,3.7,0.3,7.8,1,11.4c1.5,8.6,0.1,17.6,4,25.8c0.4,0.8,0.1,1.8,0.1,2.7c-0.3,8.5-0.7,17-1,25.5c-0.3,7.8-0.4,15.6-0.8,23.4
			c-0.4,6.8-5.9,11.2-12.5,10.5c-1.7-0.2-3.4,0-5.1-0.2c-1.2-0.2-2.9-0.4-3.5-1.2c-2.7-3.7-5.7-7.3-7.5-11.5c-2-4.7-5.7-7-9.8-7.4
			c-5.2-0.6-10.7,0.2-16,1c-9.2,1.3-18.6,2.3-27.4,4.9c-9.9,2.9-19.7,6.8-29,11.2c-12.2,5.8-23.5,13.6-35.9,18.6
			c-6.7,2.7-14.5,8.2-22.1,3.9c-5.5-3.1-12.1-6.1-14.6-13.1c-0.8-2.3-2.5-4.3-3.5-6.5c-3.8-8.4-2.5-12.4,5.1-17.3
			c1.4-0.9,2.4-2.5,4.5-4.6c-3.4,0-5.4-0.4-7.1,0.1c-7.3,1.8-14.6,3.9-21.9,5.8c-9.1,2.3-18.2,4.7-27.3,6.9
			c-6.1,1.5-10.7,5.1-14.7,9.5c-0.4,0.4-0.5,1.4-0.3,1.9c1.3,3.3,1.3,4.8-3,3.2c-0.7-0.3-4.9,0.6-4.3,4.3c0.2,1.2-0.6,2.5-0.7,3
			c-3.1,1.6-5.7,3-8.2,4.3c2.6,5.6,1,10.5-1.9,14.6c-4.2,6-7.2,12.5-10.1,19.1c-1,2.4-3.3,4.8-5.7,5.9c-3.4,1.5-3.7,3.8-4,6.9
			c-0.2,2.4-1.2,4.8-1.9,7.1c-0.7,2.3-1.5,4.7-2.5,6.9c-2.4,5.4-4.8,10.7-7.4,15.9c-0.4,0.8-2,1-2.9,1.7c-1.4,1-5.1,1.2-1.8,4.3
			c0.2,0.2-0.2,1.2-0.5,1.8c-1.5,3.4-2.9,6.8-4.5,10.2c-0.3,0.7-1.5,1-1.8,1.6c-0.7,1.3-1.7,2.8-1.6,4.1c0.9,7.1-3.2,12.4-6.4,17.9
			c-2.6,4.5-6.2,8.4-8.4,13c-1.5,3-0.7,7.1-1.9,10.3c-2.8,7.3-6.3,14.4-9.3,21.7c-3.8,9.2-7.3,18.5-10.9,27.8
			c-4.2,10.9-8.4,21.8-12.5,32.7c-1.3,3.5-2.3,7.2-3.4,10.8c-1.6,5.4-3.5,10.7-4.8,16.2c-1.4,6-2.2,12.2-3.2,18.3
			c-0.4,2.7,3.6,5.8,6.9,5.6c7-0.4,10.2,3.3,7.9,9.8c-1.2,3.4-3,6.6-5.2,9.4c-3.3,4.2-10.5,3.6-14.9-0.3c-4.1-3.6-9.2-6.3-13-10.1
			c-3-3-5.6-6.4-4.8-11.7c0.9-6.3-0.3-12.9,0.4-19.3c0.5-5.2,2.4-10.2,3.9-15.3c2.1-7.4,4.2-14.9,6.8-22.2c2.1-6,5.1-11.6,7.6-17.5
			c1.7-4.2,3.3-8.4,4.7-12.7c2.8-8.6,5.8-17.1,10.9-24.8c2.6-3.9,2.8-9.3,5-13.6c1.4-2.9,3.8-5.8,6.5-7.4c4.3-2.6,3.3-7.3,5.7-10.7
			c1.4-2,3.7-3.5,1.5-7.3C62.1,662.5,66.5,659.6,73.1,660.6z M425.4,650.8c5.4-0.4,12.8-0.3,19.9-1.7c7.8-1.5,15.2-4.6,22.9-6.3
			c17.6-4,30.7-14,39.8-29.3c2.2-3.7,4.2-7.6,5.3-11.7c3.1-11.9-2.2-22.7-5.3-33.7c-2-7.3-5.7-14.2-8.9-21.1c-0.4-0.9-3.1-2-3.8-1.5
			c-6.5,4-13.3,7.7-19,12.7c-12.4,10.8-24.4,22.1-36.1,33.7c-6.1,6.1-11.2,13.3-16.5,20.2c-4.3,5.6-7.8,12-12.5,17.3
			c-4.6,5.2-5.8,11.3-6.9,17.5c-0.2,1.1,2.2,3.7,3.5,3.8C413,651.1,418.2,650.8,425.4,650.8z"/>
		<path class="st0" d="M1412.2,212.9c0,4.7,0.2,9.4-0.1,14.1c-0.1,1.1-1.5,2.5-2.7,3.1c-7.7,4.2-15.5,8-23.1,12.2
			c-10.7,5.9-20.4,13-28.1,22.8c-3.8,4.9-7.6,10.5-15.2,10.8c-6.4,0.3-15.4-7.7-15.4-14.1c0-4.9-1.1-9.8-0.5-14.6
			c0.3-2.5,2.8-5.4,5-6.9c3-2.1,5.1-5.6,9.9-5.4c2.5,0.1,6-2.9,7.6-5.5c5.3-8.4,13.6-13.3,21.2-19c3.6-2.7,8.5-3.7,12.9-5.3
			c4.4-1.6,8.8-3.1,13.3-4.7c3.9-1.4,8,1.4,9,5.5c0.3,1.1,2.2,1.8,3.4,2.7c1.4,1,2.9,2,4.3,3
			C1413.2,212.1,1412.7,212.5,1412.2,212.9z"/>
		<path class="st0" d="M61.6,481.6c-2.9,0.2-5.9-0.4-7.2-4.7c-0.3-1-2.9-1-3.7-2.1c-2-2.7-3.9-5.5-5.3-8.5
			c-2.4-5.2-4.9-10.4-6.3-15.8c-1.3-4.8-1.3-10-1.6-15.1c-0.8-11.6,5.7-21.4,8-32.3c0.5-2.3,1.6-4.4,2.7-6.5
			c2.4-4.3,6.5-5.4,11.2-3.5c2.9,1.2,6,3,8.8,2.8c3.5-0.3,3.7,1.5,4.5,3.7c0.8,2,2.3,3.7,2.9,5.6c0.9,2.5,2.2,5.4,1.6,7.7
			c-1.2,4.8-2.6,9.9-5.5,13.7c-4.6,6-4.7,13-6.2,19.7c-1,4.7-0.4,9.9,0.5,14.8c0.5,2.7,3.3,4.9,4.6,7.5
			C74.2,475.5,70.1,481.7,61.6,481.6z"/>
	</g>
</g>
</svg>
