<svg xmlns="http://www.w3.org/2000/svg" width="95.333" height="95.332" viewBox="0 0 95.333 95.332"><path d="M30.512 43.94c-2.348-.677-4.696-1.02-6.98-1.02-3.527 0-6.47.806-8.752 1.793 2.2-8.054 7.485-21.95 18.013-23.516.975-.145 1.774-.85 2.04-1.8l2.3-8.23c.195-.695.08-1.44-.317-2.044s-1.035-1.007-1.75-1.105c-.777-.106-1.57-.16-2.354-.16-12.637 0-25.152 13.19-30.433 32.076-3.1 11.08-4.01 27.738 3.626 38.223 4.273 5.867 10.507 9 18.53 9.313l.097.002c9.898 0 18.675-6.666 21.345-16.21 1.595-5.704.874-11.687-2.032-16.85-2.875-5.105-7.61-8.826-13.334-10.473zM92.47 54.413c-2.874-5.106-7.61-8.827-13.333-10.474-2.348-.677-4.696-1.02-6.98-1.02-3.526 0-6.47.806-8.752 1.793 2.2-8.054 7.485-21.95 18.014-23.516.974-.145 1.772-.85 2.04-1.8l2.3-8.23c.194-.695.08-1.44-.318-2.044-.396-.604-1.034-1.007-1.75-1.105-.776-.106-1.568-.16-2.354-.16-12.637 0-25.152 13.19-30.434 32.076-3.1 11.08-4.008 27.738 3.63 38.225 4.27 5.865 10.506 9 18.527 9.31.034.002.066.003.1.003 9.897 0 18.675-6.666 21.345-16.21 1.593-5.704.87-11.688-2.034-16.85z"/></svg>